<svg xmlns="http://www.w3.org/2000/svg" width="1440" height="1024" viewBox="0 0 1440 1024" xmlns:xlink="http://www.w3.org/1999/xlink" style="background:#fff">
  <defs>
    <polygon id="b" points="0 1893 1440 1893 1440 693 1320 790.3 1190 806.28 1070 893.814 950 922.222 840 900.916 720 920.979 600 949.388 480 942.286 360 936.249 240 985.964 120 978.862 0 1019.7"/>
    <filter id="a" width="111.7%" height="114%" x="-6.8%" y="-8.5%" filterUnits="objectBoundingBox">
      <feOffset dx="-14" dy="-18" in="SourceAlpha" result="shadowOffsetOuter1"/>
      <feGaussianBlur stdDeviation="25" in="shadowOffsetOuter1" result="shadowBlurOuter1"/>
      <feColorMatrix values="0 0 0 0 0.243137255 0 0 0 0 0.384313725 0 0 0 0 0.525490196 0 0 0 0 0" in="shadowBlurOuter1"/>
    </filter>
  </defs>
  <g fill="none" fill-rule="evenodd">
    <g fill="#99CCEE" fill-rule="nonzero" style="mix-blend-mode:multiply" transform="translate(-532 45)" opacity=".74">
      <polygon points="360.09 284.349 613.87 736.725 867.65 458.256" opacity=".19"/>
      <polygon points="2031.09 221.941 1777.31 674.318 1523.53 395.848" opacity=".05"/>
      <polygon points="1375.21 400.287 1578.23 640.112 1882.77 187.736" opacity=".07"/>
      <polygon points="1523.54 395.848 1269.76 539.054 1015.98 337.879" opacity=".216"/>
      <polygon points="734.55 891.813 427.19 1119.166 222.28 923.014" opacity=".9"/>
      <polygon points="427.19 1119.166 734.55 891.813 837 1119.166" opacity=".85"/>
      <polygon points="1041.91 985.422 837 1119.166 734.55 891.813" opacity=".9"/>
      <polygon points="1800.08 1001.028 1656.64 1119.166 1308.29 876.213" opacity=".85"/>
      <polygon points="222.28 923.014 427.19 695.667 734.55 891.813" opacity=".96"/>
      <polygon points="2066.45 664.46 1800.07 1001.028 1656.64 804.876" opacity=".63"/>
      <polygon points="1308.29 876.213 1656.64 804.876 1800.07 1001.028" opacity=".799"/>
      <polygon points="1656.64 804.876 1308.29 876.213 1164.86 680.061" opacity=".843"/>
      <polygon points="1041.91 985.422 1164.86 680.061 1308.29 876.213" opacity=".943"/>
      <polygon points="1164.86 680.061 1041.91 985.422 837 773.675" opacity=".839"/>
      <polygon points="734.55 891.813 837 773.675 1041.91 985.422" opacity=".897"/>
      <polygon points="837 773.675 734.55 891.813 427.18 695.667" opacity=".876"/>
      <polygon points="673.08 593.13 427.19 695.667 222.28 530.722" opacity=".529"/>
      <polygon points="2271.36 530.722 2066.45 664.46 1820.56 483.915" opacity=".5"/>
      <polygon points="427.19 695.667 673.08 593.13 837 773.675" opacity=".5"/>
      <polygon points="1041.91 530.722 837 773.675 673.08 593.13" opacity=".5"/>
      <polygon points="837 773.675 1041.91 530.722 1164.86 680.061" opacity=".5"/>
      <polygon points="1451.73 530.722 1164.86 680.061 1041.91 530.722" opacity=".6"/>
      <polygon points="1164.86 680.061 1451.73 530.722 1656.64 804.876" opacity=".546"/>
      <polygon points="1820.57 483.915 1656.64 804.876 1451.73 530.722" opacity=".51"/>
      <polygon points="1656.64 804.876 1820.57 483.915 2066.46 664.46" opacity=".628"/>
      <polygon points="1820.56 483.915 2066.45 334.57 2271.36 530.722" opacity=".2"/>
      <polygon points="222.28 530.722 427.19 381.377 673.08 593.13" opacity=".2"/>
      <polygon points="2066.45 334.57 1820.56 483.915 1615.66 365.777" opacity=".294"/>
      <polygon points="1451.73 530.722 1615.66 365.777 1820.56 483.915" opacity=".253"/>
      <polygon points="1615.66 365.777 1451.73 530.722 1246.82 334.57" opacity=".322"/>
      <polygon points="1041.91 530.722 1246.82 334.57 1451.73 530.722" opacity=".27"/>
      <polygon points="1246.82 334.57 1041.91 530.722 837 443.785" opacity=".324"/>
      <polygon points="673.07 593.13 837 443.785 1041.91 530.722" opacity=".2"/>
      <polygon points="837 443.785 673.07 593.13 427.18 381.377" opacity=".23"/>
      <polygon points="1861.55 .513 2066.45 334.57 2271.36 140.928" opacity=".03"/>
      <polygon points="222.28 156.529 427.19 381.377 632.09 78.521" opacity=".02"/>
      <polygon points="2066.45 334.57 1861.55 .513 1615.66 365.777" opacity=".1"/>
      <polygon points="1451.73 172.136 1615.66 365.777 1861.55 .513" opacity=".182"/>
      <polygon points="1615.66 365.777 1451.73 172.136 1246.82 334.57" opacity=".212"/>
      <polygon points="1041.91 218.936 1246.82 334.57 1451.73 172.136" opacity=".145"/>
      <polygon points="1246.82 334.57 1041.91 218.936 837 443.785" opacity=".236"/>
      <polygon points="632.09 78.521 837 443.785 1041.91 218.936" opacity=".147"/>
      <polygon points="837 443.785 632.09 78.521 427.18 381.377" opacity=".1"/>
      <polygon points=".87 781.988 254.64 947.621 559.18 724.013" opacity=".4"/>
      <polygon points="1523.53 781.988 1777.31 1082.885 1980.33 859.276" opacity=".42"/>
      <polygon points="1777.31 1082.885 1523.53 781.988 1371.26 966.947"/>
      <polygon points="1015.97 781.988 1371.26 966.947 1523.53 781.988"/>
      <polygon points="1371.26 966.947 1015.97 781.988 762.19 1121.529"/>
      <polygon points="559.17 724.013 762.2 1121.529 1015.98 781.988" opacity=".4"/>
      <polygon points="762.2 1121.529 559.17 724.013 254.64 947.621" opacity=".35"/>
      <polygon points="559.18 724.013 254.64 539.054 .87 781.988" opacity=".2"/>
      <polygon points="254.64 539.054 559.18 724.013 812.95 577.705" opacity=".24"/>
      <polygon points="1015.98 781.988 812.95 577.705 559.18 724.013" opacity=".15"/>
      <polygon points="812.95 577.705 1015.98 781.988 1269.76 539.054" opacity=".25"/>
      <polygon points="1523.54 781.988 1269.76 539.054 1015.98 781.988" opacity=".22"/>
      <polygon points="1269.76 539.054 1523.54 781.988 1777.32 674.318" opacity=".25"/>
      <polygon points="1980.34 859.276 1777.31 674.318 1523.53 781.988" opacity=".2"/>
      <polygon points="1777.31 674.318 1980.34 859.276 2284.87 597.023" opacity=".23"/>
      <polygon points="254.64 539.054 508.42 125.328 812.95 577.705" opacity=".1"/>
      <polygon points="1015.98 337.879 812.95 577.705 508.42 125.328" opacity=".14"/>
      <polygon points="812.95 577.705 1015.98 337.879 1269.76 539.054" opacity=".231"/>
      <polygon points="1269.76 539.054 1523.54 395.848 1777.32 674.318" opacity=".1"/>
      <polygon points="1777.31 674.318 2031.09 221.941 2284.87 597.023" opacity=".1"/>
      <polygon points="867.66 844.389 613.88 1145.292 410.85 921.684"/>
      <polygon points="613.88 1145.292 867.66 844.389 1019.92 1029.354" opacity=".35"/>
      <polygon points="1375.22 844.389 1019.92 1029.354 867.66 844.389"/>
      <polygon points="1832.01 786.427 1628.99 1183.936 1375.21 844.389" opacity=".4"/>
      <polygon points="2136.54 601.462 1832.01 786.427 1578.23 640.112" opacity=".24"/>
      <polygon points="1375.21 844.389 1578.23 640.112 1832.01 786.427" opacity=".15"/>
      <polygon points="1578.23 640.112 1375.21 844.389 1121.43 601.462" opacity=".25"/>
      <polygon points="867.65 844.389 1121.43 601.462 1375.21 844.389" opacity=".22"/>
      <polygon points="1121.43 601.462 867.65 844.389 613.87 736.725" opacity=".25"/>
      <polygon points="410.85 921.684 613.87 736.725 867.65 844.389"/>
      <polygon points="613.87 736.725 410.85 921.684 106.31 659.431" opacity=".23"/>
      <polygon points="1882.77 187.736 2136.54 601.462 2390.32 361.643" opacity=".03"/>
      <polygon points="2136.54 601.462 1882.77 187.736 1578.23 640.112" opacity=".202"/>
      <polygon points="867.65 458.256 1121.43 601.462 1375.21 400.287" opacity=".04"/>
      <polygon points="1121.43 601.462 867.65 458.256 613.87 736.725" opacity=".1"/>
      <polygon points="613.87 736.725 360.09 284.349 106.31 659.431" opacity=".1"/>
    </g>
    <use fill="black" filter="url(#a)" xlink:href="#b"/>
    <use fill="#FFFFFF" xlink:href="#b"/>
  </g>
</svg>
